<?xml version="1.0" encoding="iso-8859-1"?>
<!-- Generator: Adobe Illustrator 19.0.0, SVG Export Plug-In . SVG Version: 6.00 Build 0)  -->
<svg version="1.1" id="Capa_1" xmlns="http://www.w3.org/2000/svg" xmlns:xlink="http://www.w3.org/1999/xlink" x="0px" y="0px"
	 viewBox="0 0 512.004 512.004" style="enable-background:new 0 0 512.004 512.004;" xml:space="preserve">
<path style="fill:#FFC107;" d="M511.202,287.79c-0.801-5.454-5.476-9.528-10.997-9.528H434.09c-30.742,0-55.652,24.91-55.652,55.652
	c-0.178,18.365-15.026,33.213-33.391,33.391H166.96c-18.432,0-33.391-14.959-33.391-33.391c0.111-14.714-5.766-28.85-16.273-39.157
	c-10.329-10.618-24.554-16.584-39.379-16.495H12.024c-5.343,0-9.928,3.807-10.93,9.06c-0.757,4.207-1.135,8.481-1.091,12.755
	v145.141c0,30.742,24.91,55.652,55.652,55.652h400.696c30.742,0,55.652-24.91,55.652-55.652V298.52
	C512.004,294.936,511.736,291.352,511.202,287.79z"/>
<path style="fill:#FFA000;" d="M489.743,261.344l-80.362-120.209c-12.355-18.655-33.258-29.874-55.652-29.83h-64.334v102.088
	c17.386-6.166,36.463,2.938,42.63,20.324c4.296,12.132,1.224,25.667-7.88,34.771l-44.522,44.522
	c-3.117,3.139-6.834,5.61-10.93,7.279c-4.029,1.647-8.348,2.493-12.689,2.493c-4.341,0-8.637-0.846-12.644-2.493l-4.274-2.093
	c-2.426-1.447-4.675-3.183-6.678-5.187l-44.522-44.522c-13.045-13.045-13.045-34.193,0-47.215
	c9.105-9.105,22.595-12.154,34.727-7.88V111.306h-52.313c-29.919,0.067-57.834,15.115-74.351,40.07L24.045,260.677
	c-6.278,8.459-10.418,18.298-12.021,28.716h65.892c24.509,0.178,44.344,20.013,44.522,44.522
	c0.067,24.554,19.968,44.455,44.522,44.522h178.087c24.509-0.178,44.344-20.013,44.522-44.522
	c0.067-24.554,19.968-44.455,44.522-44.522h66.115C498.87,279.376,495.308,269.781,489.743,261.344z"/>
<path style="fill:#FFC107;" d="M499.003,255.156l-80.339-120.209c-14.447-21.727-38.823-34.794-64.935-34.771h-64.334v22.261h64.334
	c18.655,0,36.085,9.35,46.392,24.888l80.317,120.209c2.226,3.384,4.096,7.012,5.543,10.797h-51.89
	c-30.742,0-55.652,24.91-55.652,55.652c-0.2,18.343-15.048,33.146-33.391,33.325H166.96c-18.432,0-33.391-14.959-33.391-33.391
	c0.111-14.714-5.766-28.85-16.273-39.157c-10.329-10.618-24.554-16.584-39.379-16.495h-51.2c1.781-4.051,4.029-7.903,6.678-11.464
	l71.88-109.301c14.403-21.882,38.845-35.039,65.024-35.061h52.313v-22.261h-52.313c-33.681,0-65.135,16.941-83.656,45.078
	L15.096,254.065c-7.368,9.928-12.199,21.482-14.069,33.703c-0.89,6.077,3.295,11.731,9.394,12.644
	c0.534,0.067,1.069,0.111,1.603,0.111h65.892c18.365,0.178,33.235,15.026,33.391,33.391c0,30.742,24.91,55.652,55.652,55.652
	h178.087c30.676-0.178,55.474-24.977,55.652-55.652c0-18.432,14.959-33.391,33.391-33.391h66.115
	c6.144,0.044,11.175-4.897,11.219-11.041c0-0.512-0.022-1.024-0.089-1.536C509.755,276.237,505.526,265.017,499.003,255.156z"/>
<path style="fill:#455A64;" d="M308.406,236.991c-4.341-4.341-11.398-4.341-15.738,0l-25.533,25.533V22.263
	c0-6.144-4.986-11.13-11.13-11.13c-6.144,0-11.13,4.986-11.13,11.13v240.262l-25.511-25.511c-4.43-4.274-11.464-4.141-15.738,0.267
	c-4.163,4.319-4.163,11.153,0,15.471l44.522,44.522c1.024,0.957,2.204,1.714,3.495,2.226l0,0l0,0
	c4.141,1.692,8.904,0.735,12.088-2.426l44.522-44.522C312.524,248.277,312.591,241.354,308.406,236.991z"/>
<path d="M256.004,300.524c-1.425,0-2.872-0.289-4.252-0.846c-4.163-1.714-6.879-5.788-6.879-10.285V22.263
	c0-6.144,4.986-11.13,11.13-11.13c6.144,0,11.13,4.986,11.13,11.13v240.262l25.511-25.511c4.341-4.341,11.398-4.341,15.738,0
	c4.341,4.341,4.341,11.398,0,15.738l-44.522,44.522C261.747,299.388,258.897,300.524,256.004,300.524z"/>
<path d="M256.004,300.524c-2.849,0-5.699-1.091-7.88-3.25l-44.522-44.522c-4.341-4.341-4.341-11.398,0-15.738s11.398-4.341,15.738,0
	l44.522,44.522c4.341,4.341,4.341,11.398,0,15.738C261.702,299.433,258.853,300.524,256.004,300.524z"/>
<path d="M456.351,500.871H55.656c-30.675,0-55.652-24.954-55.652-55.652V300.123c0-16.696,5.209-32.634,15.093-46.08l71.658-108.789
	c18.588-28.227,49.864-45.078,83.634-45.078h41.094c6.144,0,11.13,4.986,11.13,11.13c0,6.144-4.986,11.13-11.13,11.13h-41.094
	c-26.268,0-50.599,13.112-65.069,35.061L33.35,266.754c-7.368,10.084-11.086,21.459-11.086,33.369v145.096
	c0,18.41,14.982,33.391,33.391,33.391h400.696c18.41,0,33.391-14.982,33.391-33.391V298.476c0.022-11.041-3.206-21.727-9.283-30.898
	l-80.228-120.365c-10.351-15.516-27.67-24.776-46.303-24.776c-0.045,0-0.067,0-0.089,0h-53.315c-6.144,0-11.13-4.986-11.13-11.13
	c0-6.144,4.986-11.13,11.13-11.13h53.315c0.045,0,0.089,0,0.111,0c26.09,0,50.31,12.978,64.801,34.705l80.25,120.387
	c8.548,12.867,13.023,27.804,13,43.231v146.721C512.004,475.917,487.049,500.871,456.351,500.871z"/>
<path d="M345.047,389.567H166.96c-30.675,0-55.652-24.954-55.652-55.652c0-18.41-14.982-33.391-33.391-33.391H22.264
	c-6.144,0-11.13-4.986-11.13-11.13c0-6.144,4.986-11.13,11.13-11.13h55.652c30.675,0,55.652,24.954,55.652,55.652
	c0,18.41,14.982,33.391,33.391,33.391h178.087c18.41,0,33.391-14.982,33.391-33.391c0-30.698,24.954-55.652,55.652-55.652h55.652
	c6.144,0,11.13,4.986,11.13,11.13c0,6.144-4.986,11.13-11.13,11.13H434.09c-18.41,0-33.391,14.982-33.391,33.391
	C400.699,364.613,375.745,389.567,345.047,389.567z"/>
<g>
</g>
<g>
</g>
<g>
</g>
<g>
</g>
<g>
</g>
<g>
</g>
<g>
</g>
<g>
</g>
<g>
</g>
<g>
</g>
<g>
</g>
<g>
</g>
<g>
</g>
<g>
</g>
<g>
</g>
</svg>
